# xmcd
#
# Track frame offsets: 
#        150
#        10617
#        22237
#        31921
#        43080
#        52482
#        62882
#        77108
#        88386
#        97122
#        108887
#        120736
#        130114
#        139539
#
# Disc length: 2037 seconds
#
# Revision: 5
# Processed by: cddbd v1.5.2PL0 Copyright (c) Steve Scherf et al.
# Submitted via: ExactAudioCopy v0.99pb5
#
DISCID=c407f30e
DTITLE=Beatles - Help! [Mono Box Set]
DYEAR=1965
DGENRE=Rock
TTITLE0=Help!
TTITLE1=The Night Before
TTITLE2=You've Got To Hide Your Love Away
TTITLE3=I Need You
TTITLE4=Another Girl
TTITLE5=You're Going To Lose That Girl
TTITLE6=Ticket To Ride
TTITLE7=Act Naturally
TTITLE8=It's Only Love
TTITLE9=You Like Me Too Much
TTITLE10=Tell Me What You See
TTITLE11=I've Just Seen A Face
TTITLE12=Yesterday
TTITLE13=Dizzy Miss Lizzy
EXTD=
EXTT0=
EXTT1=
EXTT2=
EXTT3=
EXTT4=
EXTT5=
EXTT6=
EXTT7=
EXTT8=
EXTT9=
EXTT10=
EXTT11=
EXTT12=
EXTT13=
PLAYORDER=
